<?xml version="1.0" ?><!DOCTYPE svg  PUBLIC '-//W3C//DTD SVG 1.1//EN'  'http://www.w3.org/Graphics/SVG/1.1/DTD/svg11.dtd'><svg enable-background="new 0 0 512 512" version="1.1" viewBox="0 0 512 512" xml:space="preserve" xmlns="http://www.w3.org/2000/svg" xmlns:xlink="http://www.w3.org/1999/xlink"><g id="Layer_2"><linearGradient gradientUnits="userSpaceOnUse" id="SVGID_1_" x1="255.9277" x2="255.9277" y1="47" y2="486.2915"><stop offset="0" style="stop-color:#001832"/><stop offset="7.020611e-02" style="stop-color:#001A36"/><stop offset="0.6669" style="stop-color:#012955"/><stop offset="1" style="stop-color:#012F61"/></linearGradient><circle cx="255.9" cy="255.4" fill="url(#SVGID_1_)" r="222.3"/><g><circle cx="229.4" cy="43.4" fill="#F1F0EB" r="3"/><circle cx="188.8" cy="366.4" fill="#F1F0EB" r="3"/><circle cx="384.4" cy="431" fill="#F1F0EB" r="3"/><circle cx="116" cy="383.2" fill="#F1F0EB" r="2"/><circle cx="311.8" cy="383.3" fill="#F1F0EB" r="2"/><circle cx="441.7" cy="233.8" fill="#F1F0EB" r="3"/><circle cx="359.4" cy="171.9" fill="#F1F0EB" r="3"/><circle cx="453" cy="309.8" fill="#F1F0EB" r="2.5"/><circle cx="167.3" cy="280.7" fill="#F1F0EB" r="3"/><circle cx="179.2" cy="65.3" fill="#F1F0EB" r="2.5"/><circle cx="165.3" cy="84.6" fill="#F1F0EB" r="2.5"/><circle cx="72.6" cy="265.4" fill="#F1F0EB" r="3"/><circle cx="421" cy="191.6" fill="#F1F0EB" r="3"/><circle cx="364.5" cy="294.1" fill="#F1F0EB" r="3"/><circle cx="58.1" cy="348.5" fill="#F1F0EB" r="3.5"/><circle cx="217.5" cy="466.6" fill="#F1F0EB" r="3"/><circle cx="122" cy="431.7" fill="#F1F0EB" r="1.5"/><path d="M144.2,448.1c-0.4-0.2-0.7-0.4-1.1-0.6C143.4,447.8,143.8,448,144.2,448.1z" fill="#F1F0EB"/><path d="M145.8,446.6c0-0.8-0.7-1.5-1.5-1.5s-1.5,0.7-1.5,1.5c0,0.3,0.1,0.6,0.3,0.8c0.4,0.2,0.7,0.4,1.1,0.6    c0,0,0.1,0,0.1,0C145.1,448.1,145.8,447.4,145.8,446.6z" fill="#F1F0EB"/><circle cx="438.3" cy="164.9" fill="#F1F0EB" r="1.5"/><circle cx="457.6" cy="182.8" fill="#F1F0EB" r="1.5"/><circle cx="241.7" cy="301.8" fill="#F1F0EB" r="3"/><circle cx="268" cy="198.8" fill="#F1F0EB" r="3"/><circle cx="238.3" cy="232.9" fill="#F1F0EB" r="1.5"/><circle cx="257.6" cy="250.8" fill="#F1F0EB" r="1.5"/><circle cx="207.3" cy="179.5" fill="#F1F0EB" r="2"/><circle cx="183.1" cy="235.9" fill="#F1F0EB" r="2.5"/><circle cx="175.7" cy="182.4" fill="#F1F0EB" r="1.5"/><circle cx="333.3" cy="124.1" fill="#F1F0EB" r="3"/><circle cx="283.1" cy="146" fill="#F1F0EB" r="2.5"/><circle cx="269.2" cy="165.3" fill="#F1F0EB" r="2.5"/><circle cx="159.7" cy="137.1" fill="#F1F0EB" r="3"/><circle cx="237.8" cy="89.2" fill="#F1F0EB" r="1.5"/><circle cx="260.1" cy="104.1" fill="#F1F0EB" r="1.5"/><circle cx="249.7" cy="123.4" fill="#F1F0EB" r="3"/><circle cx="345.4" cy="273.7" fill="#F1F0EB" r="1.8"/><circle cx="322.6" cy="249.7" fill="#F1F0EB" r="1.5"/><circle cx="308.8" cy="245.9" fill="#F1F0EB" r="1.5"/><circle cx="302.2" cy="177.9" fill="#F1F0EB" r="1.8"/><circle cx="345.5" cy="212.4" fill="#F1F0EB" r="0.9"/><circle cx="341.7" cy="228.1" fill="#F1F0EB" r="0.9"/><circle cx="328.6" cy="226.2" fill="#F1F0EB" r="1.8"/><circle cx="133.5" cy="261.2" fill="#F1F0EB" r="1.8"/><circle cx="110.7" cy="237.2" fill="#F1F0EB" r="1.5"/><circle cx="96.9" cy="233.3" fill="#F1F0EB" r="1.5"/><circle cx="90.3" cy="165.4" fill="#F1F0EB" r="1.8"/><circle cx="133.6" cy="199.8" fill="#F1F0EB" r="0.9"/><circle cx="129.7" cy="215.5" fill="#F1F0EB" r="0.9"/><circle cx="116.6" cy="213.6" fill="#F1F0EB" r="1.8"/><path d="M90.7,103.7c-0.4,0.5-0.9,0.9-1.3,1.4C90.1,104.9,90.6,104.4,90.7,103.7z" fill="#F1F0EB"/><circle cx="106.2" cy="101.5" fill="#F1F0EB" r="1.8"/><circle cx="144.2" cy="174.9" fill="#F1F0EB" r="2.2"/><circle cx="80.1" cy="155.7" fill="#F1F0EB" r="1.1"/><circle cx="77.3" cy="136.3" fill="#F1F0EB" r="1.1"/><circle cx="92.9" cy="132.5" fill="#F1F0EB" r="2.2"/><circle cx="154.3" cy="378.3" fill="#F1F0EB" r="1.8"/><circle cx="131.5" cy="354.3" fill="#F1F0EB" r="1.5"/><circle cx="117.7" cy="350.4" fill="#F1F0EB" r="1.5"/><circle cx="111.1" cy="282.5" fill="#F1F0EB" r="1.8"/><circle cx="154.4" cy="316.9" fill="#F1F0EB" r="0.9"/><circle cx="150.5" cy="332.7" fill="#F1F0EB" r="0.9"/><circle cx="137.4" cy="330.7" fill="#F1F0EB" r="1.8"/><circle cx="409.5" cy="364.4" fill="#F1F0EB" r="1.5"/><circle cx="395.7" cy="360.5" fill="#F1F0EB" r="1.5"/><circle cx="389.1" cy="292.6" fill="#F1F0EB" r="1.8"/><circle cx="432.4" cy="327.1" fill="#F1F0EB" r="0.9"/><circle cx="428.5" cy="342.8" fill="#F1F0EB" r="0.9"/><circle cx="415.4" cy="340.8" fill="#F1F0EB" r="1.8"/></g><g><circle cx="468.5" cy="227.5" fill="#89A5BB" r="3"/><circle cx="145.5" cy="186.9" fill="#89A5BB" r="3"/><circle cx="80.8" cy="382.5" fill="#89A5BB" r="3"/><circle cx="128.6" cy="114.1" fill="#89A5BB" r="2"/><circle cx="128.6" cy="309.9" fill="#89A5BB" r="2"/><circle cx="278.1" cy="439.9" fill="#89A5BB" r="3"/><circle cx="340" cy="357.5" fill="#89A5BB" r="3"/><circle cx="202.1" cy="451.1" fill="#89A5BB" r="2.5"/><circle cx="231.1" cy="165.4" fill="#89A5BB" r="3"/><circle cx="446.6" cy="177.3" fill="#89A5BB" r="2.5"/><circle cx="427.3" cy="163.5" fill="#89A5BB" r="2.5"/><circle cx="246.5" cy="70.7" fill="#89A5BB" r="3"/><circle cx="320.3" cy="419.1" fill="#89A5BB" r="3"/><circle cx="217.7" cy="362.6" fill="#89A5BB" r="3"/><circle cx="163.4" cy="56.2" fill="#89A5BB" r="3.5"/><circle cx="45.2" cy="215.6" fill="#89A5BB" r="3"/><circle cx="80.1" cy="120.2" fill="#89A5BB" r="1.5"/><path d="M63.8,142.4c0.2-0.4,0.4-0.7,0.6-1.1C64.1,141.5,63.8,141.9,63.8,142.4z" fill="#89A5BB"/><path d="M65.3,143.9c0.8,0,1.5-0.7,1.5-1.5s-0.7-1.5-1.5-1.5c-0.3,0-0.6,0.1-0.8,0.3c-0.2,0.4-0.4,0.7-0.6,1.1    c0,0,0,0.1,0,0.1C63.8,143.3,64.5,143.9,65.3,143.9z" fill="#89A5BB"/><circle cx="346.9" cy="436.4" fill="#89A5BB" r="1.5"/><circle cx="329.1" cy="455.8" fill="#89A5BB" r="1.5"/><circle cx="210.1" cy="239.9" fill="#89A5BB" r="3"/><circle cx="313.1" cy="266.2" fill="#89A5BB" r="3"/><circle cx="278.9" cy="236.4" fill="#89A5BB" r="1.5"/><circle cx="261.1" cy="255.8" fill="#89A5BB" r="1.5"/><circle cx="332.3" cy="205.4" fill="#89A5BB" r="2"/><circle cx="276" cy="181.2" fill="#89A5BB" r="2.5"/><circle cx="329.5" cy="173.8" fill="#89A5BB" r="1.5"/><circle cx="387.7" cy="331.4" fill="#89A5BB" r="3"/><circle cx="365.8" cy="281.2" fill="#89A5BB" r="2.5"/><circle cx="346.5" cy="267.3" fill="#89A5BB" r="2.5"/><circle cx="374.8" cy="157.9" fill="#89A5BB" r="3"/><circle cx="422.6" cy="236" fill="#89A5BB" r="1.5"/><circle cx="407.8" cy="258.3" fill="#89A5BB" r="1.5"/><circle cx="388.4" cy="247.9" fill="#89A5BB" r="3"/><circle cx="238.1" cy="343.5" fill="#89A5BB" r="1.8"/><circle cx="262.1" cy="320.7" fill="#89A5BB" r="1.5"/><circle cx="266" cy="306.9" fill="#89A5BB" r="1.5"/><circle cx="333.9" cy="300.4" fill="#89A5BB" r="1.8"/><circle cx="299.5" cy="343.6" fill="#89A5BB" r="0.9"/><circle cx="283.8" cy="339.8" fill="#89A5BB" r="0.9"/><circle cx="285.7" cy="326.7" fill="#89A5BB" r="1.8"/><circle cx="250.7" cy="131.6" fill="#89A5BB" r="1.8"/><circle cx="274.7" cy="108.8" fill="#89A5BB" r="1.5"/><circle cx="278.6" cy="95" fill="#89A5BB" r="1.5"/><circle cx="346.5" cy="88.5" fill="#89A5BB" r="1.8"/><circle cx="312" cy="131.7" fill="#89A5BB" r="0.9"/><circle cx="296.3" cy="127.9" fill="#89A5BB" r="0.9"/><circle cx="298.3" cy="114.8" fill="#89A5BB" r="1.8"/><path d="M408.2,88.9c-0.5-0.4-0.9-0.9-1.4-1.3C407,88.2,407.5,88.8,408.2,88.9z" fill="#89A5BB"/><circle cx="410.4" cy="104.4" fill="#89A5BB" r="1.8"/><circle cx="337" cy="142.3" fill="#89A5BB" r="2.2"/><circle cx="356.2" cy="78.2" fill="#89A5BB" r="1.1"/><circle cx="375.6" cy="75.4" fill="#89A5BB" r="1.1"/><circle cx="379.3" cy="91" fill="#89A5BB" r="2.2"/><circle cx="133.6" cy="152.4" fill="#89A5BB" r="1.8"/><circle cx="157.6" cy="129.6" fill="#89A5BB" r="1.5"/><circle cx="161.4" cy="115.8" fill="#89A5BB" r="1.5"/><circle cx="229.4" cy="109.2" fill="#89A5BB" r="1.8"/><circle cx="194.9" cy="152.5" fill="#89A5BB" r="0.9"/><circle cx="179.2" cy="148.7" fill="#89A5BB" r="0.9"/><circle cx="181.1" cy="135.6" fill="#89A5BB" r="1.8"/><circle cx="147.4" cy="407.6" fill="#89A5BB" r="1.5"/><circle cx="151.3" cy="393.8" fill="#89A5BB" r="1.5"/><circle cx="219.2" cy="387.3" fill="#89A5BB" r="1.8"/><circle cx="184.8" cy="430.5" fill="#89A5BB" r="0.9"/><circle cx="169.1" cy="426.7" fill="#89A5BB" r="0.9"/><circle cx="171" cy="413.6" fill="#89A5BB" r="1.8"/></g><radialGradient cx="255.9277" cy="255.4135" gradientUnits="userSpaceOnUse" id="SVGID_2_" r="222.3347"><stop offset="0" style="stop-color:#FFFFFF"/><stop offset="1" style="stop-color:#FFFFFF;stop-opacity:0"/></radialGradient><circle cx="255.9" cy="255.4" fill="url(#SVGID_2_)" opacity="0.8" r="222.3"/><path d="M255.9,4.8C117,4.8,4.3,117.4,4.3,256.4C4.3,395.4,117,508,255.9,508s251.6-112.7,251.6-251.6   C507.5,117.4,394.9,4.8,255.9,4.8z M255.9,462.7c-114,0-206.3-92.4-206.3-206.3c0-114,92.4-206.3,206.3-206.3   c114,0,206.3,92.4,206.3,206.3C462.3,370.4,369.9,462.7,255.9,462.7z" fill="#F6B221"/><path d="M246.8,189.2c0-30.6,18.1-56.1,48.7-57.6c70.8-3.6,34.5,48.9,53.6,72.8c40.3,50.3-16.2,40.3-46.8,40.3   S246.8,219.9,246.8,189.2z" fill="#D2AA66"/><path d="M321,180.4c16.3,36.8,36.7,61.9,64.7,78.2c21.9,12.8-84.1-15.9-93.5-39.5   C287.8,207.9,316.1,169.4,321,180.4z" fill="#D2AA66"/><path d="M295.3,155.7c24.3,32.1,49.8,51.9,80.8,61.3c24.3,7.4-85.5,3.7-100-17.1C269.2,190.1,288,146.1,295.3,155.7   z" fill="#D2AA66"/><path d="M305.4,154.2c19,35.5,41,59.1,70.1,73.3c22.8,11.2-85-9.8-96.1-32.7C274.2,184,299.7,143.5,305.4,154.2z" fill="#D2AA66"/><path d="M269.1,184.6c0-30.6-18.1-56.1-48.7-57.6c-70.8-3.6-34.5,48.9-53.6,72.8c-40.3,50.3,16.2,40.3,46.8,40.3   S269.1,215.3,269.1,184.6z" fill="#D2AA66"/><path d="M194.9,175.8c-16.3,36.8-36.7,61.9-64.7,78.2c-21.9,12.8,84.1-15.9,93.5-39.5   C228.1,203.3,199.7,164.8,194.9,175.8z" fill="#D2AA66"/><path d="M220.6,151.1c-24.3,32.1-49.8,51.9-80.8,61.3c-24.3,7.4,85.5,3.7,100-17.1   C246.7,185.5,227.8,141.5,220.6,151.1z" fill="#D2AA66"/><path d="M210.5,149.6c-19,35.5-41,59.1-70.1,73.3c-22.8,11.2,85-9.8,96.1-32.7C241.7,179.4,216.2,138.9,210.5,149.6   z" fill="#D2AA66"/><circle cx="256" cy="271.4" fill="#B21E28" r="107.5"/><path d="M316.6,245.4c12.3,15.2,13.3,32.2-23.5,32.2c-13,0-23.5-14.4-23.5-32.2s10.5-32.2,23.5-32.2   C306.1,213.2,305.5,231.5,316.6,245.4z" fill="#951823"/><path d="M195.6,245.4c-12.3,15.2-13.3,32.2,23.5,32.2c13,0,23.5-14.4,23.5-32.2s-10.5-32.2-23.5-32.2   S206.8,231.5,195.6,245.4z" fill="#951823"/><g><path d="M256,379c39.8,0,74.6-21.6,93.2-53.8c-18.6-32.1-53.3-53.8-93.2-53.8c-39.8,0-74.6,21.6-93.2,53.8    C181.4,357.3,216.2,379,256,379z" fill="#C9A58F"/></g><ellipse cx="338.3" cy="270.3" fill="#951823" rx="9.5" ry="13.1" transform="matrix(0.98 -0.199 0.199 0.98 -47.028 72.7443)"/><ellipse cx="173.6" cy="270.3" fill="#951823" rx="9.5" ry="13.1" transform="matrix(0.9798 0.1998 -0.1998 0.9798 57.5079 -29.2383)"/><g opacity="0.15"><path d="M256,358.9c-56.2,0-102.3-42.8-107.4-97.5c-0.3,3.3-0.5,6.7-0.5,10c0,59.4,48.3,107.5,107.9,107.5    c59.6,0,107.9-48.1,107.9-107.5c0-3.4-0.2-6.7-0.5-10C358.3,316.1,312.2,358.9,256,358.9z"/></g><circle cx="216.7" cy="231.1" fill="#FFFFFF" r="25.3"/><circle cx="295.6" cy="231.1" fill="#FFFFFF" r="25.3"/><circle cx="216.7" cy="231.1" fill="#1F355E" r="7.3"/><circle cx="295.6" cy="231.1" fill="#1F355E" r="7.3"/><g><polygon fill="#925417" points="307.6,270.9 256,322 204.4,270.9   "/><polygon fill="#ED8C1E" points="204.4,271.1 256,220 307.6,271.1   "/><polygon fill="#F9B922" points="307.4,271.1 256.4,270.8 256,220   "/><polygon fill="#F7D68C" points="262.4,226.3 256,271.2 249.6,226.3 256,220   "/></g><path d="M215.5,129.3c-12,10.8-43.6,94.5-96.4,116.6c-34.9,14.6,125.3-23.8,139.4-58.9c4.4-11.1,13.4-36.1-0.7-49.6   C250.5,130.5,220,125.2,215.5,129.3z" fill="#D2AA66"/><path d="M299.4,131.9c12,10.8,43.6,94.5,96.4,116.6c34.9,14.6-125.3-23.8-139.4-58.9c-4.4-11.1-13.4-36.1,0.7-49.6   C264.4,133.1,294.9,127.9,299.4,131.9z" fill="#D2AA66"/><path d="M310.1,151.8c2,5.2,24.8,25.6,25.3,45.2c0.4,12.9,7.9-43-1.6-51.8c-3-2.8-9.9-8.7-15.9-5.9   C314.8,140.8,309.4,149.9,310.1,151.8z" fill="#FFFFFF" opacity="0.2"/><g><path d="M149.8,283l97.4,49.9h17.9l97.4-49.9l5-3.3c0-3-0.1-1,0-4l0-4.3l-105.7,53.7l-5.6,4.4l-5.6-4.4L142,269.3    l0,5.3c0.2,3.1-0.4,1.4,0,4.4L149.8,283z" fill="#FFFFFF"/><path d="M267,325.4h-21.7c-6.8,0-12.3,34.8-12.8,28.1l-74.6-38.3c16.8,37.6,54.5,63.8,98.3,63.8    c43.8,0,81.5-26.2,98.3-63.8l-74.6,38.3C279.3,360.1,273.8,325.4,267,325.4z" fill="#F1F0EB"/><path d="M265.1,332.9h1.9c7.1,0,12.9,5.8,12.9,12.9v6.7c0,0.3,0,0.7,0,1l74.6-38.3c4.1-9.1,6.9-18.9,8.3-29.2    l0.5-4.1L265.1,332.9z" fill="#7F4733"/><path d="M232.4,352.5v-6.7c0-7.1,5.8-12.9,12.9-12.9h1.9l-98.1-51l0.5,4.1c1.4,10.3,4.2,20.1,8.3,29.2l74.6,38.3    C232.4,353.1,232.4,352.8,232.4,352.5z" fill="#7F4733"/><path d="M267,330.6h-1.9h-17.9h-1.9c-7.1,0-12.9,5.4-12.9,12.1v6.3c0,0.3,0,0.6,0,0.9c0.5,6.2,6,11.1,12.8,11.1    H267c6.8,0,12.3-4.9,12.8-11.1c0-0.3,0-0.6,0-0.9v-6.3C279.9,336,274.1,330.6,267,330.6z" fill="#999999"/></g></g></svg>